<?xml version="1.0" standalone="no"?>
<!DOCTYPE svg PUBLIC "-//W3C//DTD SVG 20010904//EN"
 "http://www.w3.org/TR/2001/REC-SVG-20010904/DTD/svg10.dtd">
<svg version="1.0" xmlns="http://www.w3.org/2000/svg"
 width="627.000000pt" height="695.000000pt" viewBox="0 0 627.000000 695.000000"
 preserveAspectRatio="xMidYMid meet">

<g transform="translate(0.000000,695.000000) scale(0.100000,-0.100000)"
fill="#000000" stroke="none">
<path d="M246 6151 c-3 -4 0 -28 7 -52 13 -44 14 -44 92 -71 130 -43 177 -32
126 29 -18 21 -113 70 -180 92 -41 13 -39 13 -45 2z"/>
<path d="M5710 4254 c-7 -17 -6 -32 1 -47 17 -31 121 -634 133 -772 4 -38 18
-184 31 -324 19 -192 22 -258 13 -268 -8 -10 -8 -17 0 -25 6 -6 8 -16 6 -23
-8 -20 25 -26 56 -10 31 16 35 27 45 145 32 369 -10 798 -116 1200 -32 121
-35 127 -82 135 -23 4 -50 9 -60 11 -11 3 -21 -5 -27 -22z"/>
<path d="M2995 3909 c-27 -4 -135 -19 -240 -33 -170 -23 -197 -29 -262 -61
-116 -58 -175 -135 -248 -325 -47 -123 -88 -202 -160 -305 -295 -425 -353
-589 -264 -755 39 -73 133 -186 185 -222 50 -36 186 -183 209 -228 34 -66 125
-151 200 -186 95 -44 161 -54 353 -54 135 0 178 -4 245 -21 56 -15 115 -22
187 -23 118 -1 145 9 180 67 32 52 25 94 -31 206 -59 119 -138 210 -232 269
-81 50 -100 57 -237 86 -72 16 -139 37 -180 58 -106 55 -228 130 -265 164 -32
29 -35 37 -35 85 0 30 10 92 21 139 11 47 33 148 50 225 16 77 40 160 53 185
26 52 85 101 153 125 26 10 86 33 133 52 47 20 105 39 130 43 25 5 59 12 76
15 27 6 33 4 39 -15 9 -29 63 -60 105 -60 53 0 93 31 146 114 27 42 74 111
104 153 49 70 55 83 55 130 0 41 -5 57 -24 77 -38 40 -84 51 -135 32 l-43 -17
-35 35 c-52 52 -116 64 -233 45z"/>
<path d="M835 3472 c-6 -4 -23 -27 -40 -51 -29 -43 -30 -47 -28 -155 1 -113
19 -297 47 -486 25 -161 67 -393 76 -410 4 -8 10 -33 14 -55 15 -88 58 -204
83 -221 30 -19 33 -17 44 43 7 34 5 75 -7 143 -9 52 -18 98 -20 102 -2 3 0 18
5 31 8 20 6 29 -9 42 -12 11 -26 57 -44 153 -35 184 -43 263 -61 557 -8 138
-17 265 -20 283 -6 31 -19 40 -40 24z"/>
</g>
</svg>
