<?xml version="1.0" standalone="no"?>
<!DOCTYPE svg PUBLIC "-//W3C//DTD SVG 20010904//EN"
 "http://www.w3.org/TR/2001/REC-SVG-20010904/DTD/svg10.dtd">
<svg version="1.0" xmlns="http://www.w3.org/2000/svg"
 width="616.000000pt" height="625.000000pt" viewBox="0 0 616.000000 625.000000"
 preserveAspectRatio="xMidYMid meet">

<g transform="translate(0.000000,625.000000) scale(0.100000,-0.100000)"
fill="#000000" stroke="none">
<path d="M5700 6102 c-102 -57 -113 -68 -131 -122 -9 -28 -13 -50 -10 -50 3 0
52 21 107 47 100 47 102 49 111 90 7 30 7 47 -1 57 -9 13 -21 9 -76 -22z"/>
<path d="M488 6103 c-3 -10 0 -35 6 -56 10 -34 19 -41 109 -85 54 -27 100 -45
103 -41 2 4 -3 29 -12 55 -16 50 -50 80 -144 126 -45 22 -57 22 -62 1z"/>
<path d="M2362 3845 c-206 -71 -293 -144 -378 -323 -31 -63 -71 -139 -90 -168
-18 -30 -49 -85 -69 -123 -19 -38 -60 -111 -91 -163 -59 -97 -136 -280 -155
-367 -6 -30 -9 -113 -7 -194 4 -156 16 -198 77 -274 26 -33 35 -60 61 -191 38
-197 62 -244 154 -307 28 -19 105 -55 171 -80 166 -63 179 -71 266 -150 88
-81 164 -123 253 -141 33 -7 115 -26 180 -43 148 -39 194 -40 235 -6 39 34 56
85 42 127 -18 51 -46 73 -142 113 -110 46 -132 72 -188 214 -64 160 -106 235
-152 275 -24 20 -101 65 -173 102 -134 67 -185 106 -238 182 -29 42 -30 47
-24 115 4 40 10 153 14 252 7 161 10 185 31 225 45 86 92 138 155 171 75 39
159 98 256 179 124 103 171 121 373 140 l119 10 46 -49 c68 -72 135 -80 201
-26 41 35 55 84 48 167 -11 127 -85 243 -172 267 -20 5 -51 23 -70 40 -19 16
-51 35 -72 40 -22 7 -151 11 -313 11 -266 -1 -277 -1 -348 -25z"/>
<path d="M5605 3511 c-3 -6 -1 -61 6 -123 12 -118 9 -218 -17 -608 -15 -231
-39 -475 -52 -523 -4 -14 -2 -79 3 -142 11 -128 20 -144 67 -119 30 16 27 6
87 251 56 226 82 481 70 678 -27 453 -30 490 -43 497 -8 4 -17 19 -20 33 -4
15 -13 25 -25 25 -10 0 -30 9 -44 20 -15 12 -28 16 -32 11z"/>
<path d="M667 3383 c-76 -58 -85 -83 -113 -287 -12 -83 -22 -130 -31 -133 -18
-7 -17 -139 2 -192 12 -34 12 -51 3 -92 -8 -33 -8 -53 -2 -57 6 -4 10 -60 11
-132 0 -232 37 -484 72 -493 31 -8 46 9 43 47 -3 33 21 287 37 393 4 29 4 56
0 60 -20 20 -26 232 -13 423 14 199 38 403 53 443 19 52 -8 60 -62 20z"/>
</g>
</svg>
