<?xml version="1.0" standalone="no"?>
<!DOCTYPE svg PUBLIC "-//W3C//DTD SVG 20010904//EN"
 "http://www.w3.org/TR/2001/REC-SVG-20010904/DTD/svg10.dtd">
<svg version="1.0" xmlns="http://www.w3.org/2000/svg"
 width="616.000000pt" height="625.000000pt" viewBox="0 0 616.000000 625.000000"
 preserveAspectRatio="xMidYMid meet">

<g transform="translate(0.000000,625.000000) scale(0.100000,-0.100000)"
fill="#000000" stroke="none">
<path d="M447 5575 c-3 -8 -1 -33 6 -55 11 -39 17 -44 94 -80 77 -36 82 -37
97 -21 11 12 14 27 10 47 -5 25 -20 36 -99 77 -52 26 -96 47 -98 47 -3 0 -7
-7 -10 -15z"/>
<path d="M5624 5547 c-66 -38 -72 -45 -87 -92 -8 -27 -13 -52 -11 -54 3 -3 51
17 107 44 56 28 103 50 104 50 1 0 4 13 7 28 2 14 7 31 10 36 7 11 0 16 -34
24 -18 4 -45 -6 -96 -36z"/>
<path d="M2590 3374 c-61 -16 -192 -84 -229 -117 -13 -12 -48 -57 -78 -100
-31 -43 -113 -135 -183 -205 -203 -202 -335 -398 -421 -624 -62 -161 -68 -216
-68 -588 l-1 -255 38 -83 c47 -103 112 -194 176 -244 89 -71 232 -133 385
-169 47 -11 151 -49 231 -84 203 -89 322 -119 475 -120 115 0 122 1 174 30 57
31 112 88 168 171 25 38 38 72 48 131 20 112 4 171 -57 215 -30 21 -47 23
-243 31 -119 5 -232 15 -261 23 -55 15 -177 90 -245 151 -49 44 -139 178 -179
267 -15 34 -44 97 -66 141 -34 72 -39 92 -48 200 -11 144 0 186 72 266 51 57
168 118 359 187 138 50 183 73 253 127 70 54 99 69 181 89 59 15 70 15 102 1
89 -37 166 2 186 94 11 54 4 93 -28 145 -13 21 -26 71 -35 136 -15 108 -28
136 -80 174 -26 20 -42 21 -299 23 -215 2 -283 -1 -327 -13z m85 -493 c-14
-12 -132 -54 -120 -42 10 10 103 50 120 50 5 1 5 -2 0 -8z"/>
<path d="M5588 2963 c-2 -10 -1 -34 4 -53 18 -83 19 -283 4 -495 -31 -424 -46
-611 -55 -685 -11 -81 3 -260 21 -271 6 -4 22 -4 37 0 21 6 30 19 48 72 37
111 73 294 88 446 28 288 30 319 23 403 -4 47 -12 160 -18 253 -15 221 -21
272 -31 255 -9 -14 -13 -1 -10 35 2 10 -5 17 -16 17 -10 0 -31 9 -48 20 -37
24 -43 25 -47 3z"/>
<path d="M675 2845 c-90 -64 -98 -91 -120 -389 -10 -131 -13 -227 -7 -276 4
-42 5 -86 2 -99 -5 -23 -3 -61 20 -351 14 -171 35 -267 61 -281 11 -5 23 -8
28 -5 5 3 12 52 15 108 4 57 13 150 21 208 10 79 10 120 2 165 -5 33 -10 170
-11 305 0 241 11 392 39 553 8 45 11 85 7 89 -4 4 -30 -8 -57 -27z"/>
</g>
</svg>
