<?xml version="1.0" standalone="no"?>
<!DOCTYPE svg PUBLIC "-//W3C//DTD SVG 20010904//EN"
 "http://www.w3.org/TR/2001/REC-SVG-20010904/DTD/svg10.dtd">
<svg version="1.0" xmlns="http://www.w3.org/2000/svg"
 width="616.000000pt" height="625.000000pt" viewBox="0 0 616.000000 625.000000"
 preserveAspectRatio="xMidYMid meet">

<g transform="translate(0.000000,625.000000) scale(0.100000,-0.100000)"
fill="#000000" stroke="none">
<path d="M5930 6162 c-78 -45 -86 -52 -102 -97 -9 -27 -15 -51 -13 -55 2 -3
44 13 92 37 48 24 93 43 99 43 18 0 30 57 25 110 -2 16 -13 12 -101 -38z"/>
<path d="M738 6189 c-7 -20 14 -109 25 -109 5 0 52 -21 104 -46 52 -26 96 -44
98 -42 3 2 -3 29 -11 59 l-16 54 -89 45 c-108 55 -106 54 -111 39z"/>
<path d="M3086 3975 c-157 -23 -228 -50 -350 -131 -28 -18 -76 -41 -106 -50
-161 -47 -330 -159 -417 -277 -44 -61 -45 -63 -40 -123 l5 -62 -40 -5 c-66 -9
-97 -48 -167 -218 -60 -145 -93 -275 -98 -395 -6 -127 6 -182 62 -294 19 -36
46 -97 60 -133 67 -178 191 -381 289 -473 69 -66 194 -159 224 -168 12 -4 37
-31 56 -60 55 -87 73 -92 316 -88 137 2 227 8 270 18 48 11 92 13 171 8 87 -5
111 -4 137 10 93 48 73 191 -33 226 -26 9 -255 50 -277 50 -5 0 -8 22 -8 49 0
90 -52 129 -246 185 l-116 33 -29 58 c-41 81 -104 161 -169 212 -71 57 -102
73 -148 77 -35 4 -37 6 -35 37 2 19 7 113 12 209 5 96 16 198 24 226 8 28 18
81 22 117 l7 66 57 16 c62 18 109 45 225 128 43 31 127 81 186 112 l108 55
124 0 c81 0 162 -7 233 -20 174 -32 227 -4 291 154 55 135 61 248 19 313 -20
30 -94 84 -169 123 -58 30 -60 30 -210 29 -83 -1 -191 -7 -240 -14z"/>
<path d="M5898 3573 c-2 -10 0 -40 5 -68 19 -101 11 -525 -16 -847 -14 -169
-29 -313 -33 -320 -14 -22 7 -253 24 -270 4 -4 23 -5 40 -2 29 6 34 12 52 73
109 369 128 670 75 1188 -8 78 -15 149 -15 158 0 8 -7 15 -15 15 -18 0 -20 17
-3 22 18 6 -1 28 -25 28 -12 0 -33 9 -47 20 -31 24 -38 25 -42 3z"/>
<path d="M969 3462 c-46 -26 -89 -86 -102 -142 -16 -67 -37 -449 -28 -522 5
-42 5 -96 0 -120 -4 -24 -4 -78 1 -123 10 -83 20 -178 26 -255 7 -79 11 -104
24 -163 11 -47 19 -61 41 -73 26 -13 28 -12 34 6 4 11 4 33 0 49 -3 15 1 86 9
157 21 171 22 254 7 404 -11 100 -11 166 -1 333 11 190 32 380 51 456 6 23
-14 21 -62 -7z"/>
</g>
</svg>
