<?xml version="1.0" standalone="no"?>
<!DOCTYPE svg PUBLIC "-//W3C//DTD SVG 20010904//EN"
 "http://www.w3.org/TR/2001/REC-SVG-20010904/DTD/svg10.dtd">
<svg version="1.0" xmlns="http://www.w3.org/2000/svg"
 width="803.000000pt" height="803.000000pt" viewBox="0 0 803.000000 803.000000"
 preserveAspectRatio="xMidYMid meet">

<g transform="translate(0.000000,803.000000) scale(0.100000,-0.100000)"
fill="#000000" stroke="none">
<path d="M5015 4810 c-92 -6 -126 -14 -209 -45 -54 -20 -115 -48 -135 -61 -20
-13 -52 -34 -71 -46 -59 -39 -150 -137 -150 -162 0 -24 28 -56 48 -56 16 0 15
11 -3 34 -24 32 -18 49 33 97 97 93 194 152 332 201 58 20 83 23 235 22 197 0
225 -7 225 -55 0 -20 4 -29 13 -27 17 6 21 72 5 85 -18 14 -192 21 -323 13z"/>
<path d="M5320 4626 c-5 -15 -10 -32 -10 -37 0 -7 -20 -8 -52 -4 -89 11 -285
-20 -391 -62 -110 -43 -189 -84 -240 -125 -35 -28 -40 -29 -56 -14 -20 18 -41
21 -41 6 0 -15 42 -50 60 -50 8 0 39 21 68 46 60 53 173 110 293 150 73 24
101 28 219 29 178 3 167 0 174 37 8 42 -10 61 -24 24z"/>
<path d="M3195 4420 c-19 -21 -19 -21 22 -14 38 6 42 4 75 -37 30 -38 59 -88
149 -258 10 -18 24 -58 30 -87 11 -47 10 -56 -4 -72 -19 -20 -22 -42 -8 -42
13 0 51 50 51 67 0 49 -149 375 -198 435 -30 35 -89 39 -117 8z"/>
<path d="M3098 4367 c-18 -14 -28 -33 -28 -49 0 -56 93 -263 163 -362 58 -82
82 -99 135 -90 54 8 58 34 5 32 -21 -1 -51 5 -68 13 -52 25 -134 165 -166 283
-23 86 -24 139 -4 156 18 15 20 40 3 40 -7 -1 -25 -11 -40 -23z"/>
</g>
</svg>
