<?xml version="1.0" standalone="no"?>
<!DOCTYPE svg PUBLIC "-//W3C//DTD SVG 20010904//EN"
 "http://www.w3.org/TR/2001/REC-SVG-20010904/DTD/svg10.dtd">
<svg version="1.0" xmlns="http://www.w3.org/2000/svg"
 width="803.000000pt" height="803.000000pt" viewBox="0 0 803.000000 803.000000"
 preserveAspectRatio="xMidYMid meet">

<g transform="translate(0.000000,803.000000) scale(0.100000,-0.100000)"
fill="#000000" stroke="none">
<path d="M3478 5896 c-101 -36 -345 -224 -441 -341 -252 -307 -349 -714 -266
-1118 23 -116 83 -301 109 -337 9 -14 37 -63 60 -110 158 -315 464 -586 725
-640 111 -23 325 6 325 44 0 33 -37 156 -56 187 l-23 37 -113 4 c-107 3 -116
5 -172 37 -83 48 -121 84 -158 152 -31 56 -50 71 -62 50 -8 -12 64 -118 114
-170 22 -23 70 -55 108 -73 58 -28 80 -33 167 -36 l100 -4 17 -37 c31 -65 48
-132 35 -136 -147 -44 -305 -27 -454 49 -66 33 -224 166 -304 256 -173 193
-329 510 -380 771 -28 146 -30 344 -5 473 75 386 283 677 628 880 91 53 80 61
131 -96 l35 -107 -32 -11 c-44 -14 -178 -117 -262 -200 -227 -225 -322 -482
-280 -760 16 -102 63 -270 77 -270 4 0 12 7 20 16 10 12 10 22 1 47 -6 18 -23
79 -38 137 -35 131 -39 290 -10 385 71 239 224 429 484 599 54 36 72 53 71 69
0 12 -17 71 -37 131 -43 127 -57 142 -114 122z"/>
</g>
</svg>
