<?xml version="1.0" standalone="no"?>
<!DOCTYPE svg PUBLIC "-//W3C//DTD SVG 20010904//EN"
 "http://www.w3.org/TR/2001/REC-SVG-20010904/DTD/svg10.dtd">
<svg version="1.0" xmlns="http://www.w3.org/2000/svg"
 width="803.000000pt" height="803.000000pt" viewBox="0 0 803.000000 803.000000"
 preserveAspectRatio="xMidYMid meet">

<g transform="translate(0.000000,803.000000) scale(0.100000,-0.100000)"
fill="#000000" stroke="none">
<path d="M2212 7998 c-21 -21 -14 -67 13 -92 14 -13 51 -31 82 -41 32 -10 68
-29 81 -42 37 -40 57 -27 58 37 1 30 0 63 -3 72 -5 19 -105 54 -123 43 -6 -3
-23 3 -39 14 -33 24 -52 26 -69 9z"/>
<path d="M7563 7190 c-29 -12 -56 -66 -49 -96 14 -54 121 -174 155 -174 6 0
17 16 26 36 8 19 24 48 35 64 11 15 20 33 20 40 0 20 -114 128 -140 134 -14 3
-35 1 -47 -4z"/>
<path d="M3478 5896 c-101 -36 -339 -219 -438 -338 -253 -304 -352 -715 -269
-1121 23 -116 83 -301 109 -337 9 -14 37 -63 60 -110 132 -263 353 -485 591
-593 122 -56 194 -67 324 -53 79 9 135 31 135 53 0 35 -35 151 -56 184 l-23
37 -113 3 c-113 4 -114 4 -185 46 -77 46 -107 77 -150 153 -15 28 -32 50 -38
50 -5 0 -33 24 -61 53 -28 28 -62 62 -76 75 -44 41 -91 132 -134 259 -35 103
-41 129 -32 148 8 17 8 32 0 52 -23 58 -62 231 -68 303 -4 56 -1 100 14 172
52 252 209 458 490 642 54 36 72 53 71 69 0 12 -17 71 -37 131 -43 127 -57
142 -114 122z"/>
<path d="M1618 5577 c-32 -18 -70 -44 -85 -60 -28 -27 -28 -29 -27 -145 3
-223 4 -231 26 -243 27 -14 53 5 136 100 51 58 62 77 57 94 -15 45 -17 159 -5
203 11 39 11 47 -5 64 -23 26 -29 25 -97 -13z"/>
<path d="M6900 5420 c-11 -11 -20 -29 -20 -39 0 -11 -9 -35 -20 -53 -10 -19
-47 -105 -80 -193 -109 -286 -177 -504 -215 -685 -20 -96 -43 -198 -51 -226
-10 -36 -12 -59 -5 -77 19 -48 77 -71 121 -47 23 12 38 62 79 255 37 176 102
403 143 498 16 39 52 149 79 242 27 94 58 192 69 219 11 27 20 59 20 72 0 49
-82 72 -120 34z"/>
<path d="M1518 3319 c-22 -12 -23 -57 -3 -83 22 -28 19 -103 -6 -150 -12 -24
-69 -85 -135 -146 -286 -262 -316 -282 -427 -286 -37 -1 -76 -6 -87 -9 -16 -5
-20 -2 -20 14 0 29 -41 54 -74 45 -28 -7 -56 -49 -56 -84 0 -36 59 -132 127
-208 74 -82 256 -232 319 -263 58 -27 128 -34 224 -20 72 11 93 19 164 65 44
28 102 64 128 79 77 45 170 193 227 364 28 83 27 133 -4 191 -14 26 -25 52
-25 58 0 6 -13 29 -29 51 -43 60 -66 110 -85 188 -26 105 -51 142 -118 176
-60 30 -91 35 -120 18z"/>
<path d="M5095 3192 c-33 -16 -80 -46 -104 -66 -53 -45 -142 -91 -192 -100
-25 -4 -50 -22 -87 -61 -42 -44 -76 -67 -175 -114 -150 -73 -241 -95 -389 -94
-97 1 -112 4 -152 27 -27 16 -48 37 -54 55 -24 68 -164 142 -277 147 -27 1
-62 5 -77 9 -42 11 -71 0 -145 -57 -37 -29 -128 -83 -201 -119 -73 -37 -139
-73 -147 -79 -8 -7 -15 -29 -15 -50 0 -30 6 -44 28 -62 16 -13 45 -49 65 -80
20 -31 51 -74 70 -95 19 -21 66 -83 105 -138 57 -79 72 -107 72 -136 0 -36
-41 -248 -78 -409 -11 -47 -39 -166 -62 -265 -23 -99 -50 -215 -60 -257 -17
-70 -18 -95 -8 -275 5 -109 8 -251 5 -315 -3 -80 -1 -122 6 -132 7 -9 35 -20
62 -26 70 -14 485 -32 633 -28 152 4 157 7 148 113 -17 208 -28 461 -23 540 8
121 67 380 111 487 20 48 36 92 36 98 0 6 21 66 46 133 38 100 46 136 48 199
3 65 7 84 30 119 16 24 42 47 63 55 80 34 203 179 274 325 21 43 43 79 48 79
4 0 49 40 98 88 53 53 119 106 163 132 41 24 102 68 136 99 34 31 94 83 134
116 40 33 80 71 88 84 15 22 15 25 -12 47 -19 17 -39 24 -69 24 -23 0 -51 3
-62 5 -11 3 -47 -7 -80 -23z"/>
<path d="M4833 2515 c-41 -17 -73 -61 -73 -100 0 -17 -20 -92 -45 -166 -49
-150 -138 -504 -154 -619 -37 -259 -53 -628 -31 -709 14 -55 50 -81 110 -81
33 0 55 6 75 22 l28 22 -9 175 c-9 199 -10 176 7 491 7 129 14 269 15 310 2
47 16 126 39 210 19 74 44 167 54 205 10 39 29 103 41 143 12 40 20 78 17 86
-8 20 -41 25 -74 11z"/>
<path d="M5685 2504 c-76 -21 -174 -62 -196 -84 -44 -40 -104 -207 -160 -445
-16 -69 -21 -125 -22 -240 -2 -214 13 -255 98 -255 46 0 82 24 90 60 9 40 70
97 129 119 28 10 90 24 138 30 81 11 88 10 122 -9 24 -15 60 -23 113 -27 69
-5 89 -11 170 -55 109 -58 147 -97 139 -142 -8 -43 17 -78 52 -74 21 2 38 19
72 70 25 36 53 75 62 85 35 38 91 354 92 523 0 85 -16 114 -118 216 -70 69
-98 89 -196 137 -158 78 -202 88 -400 92 -91 2 -174 2 -185 -1z"/>
<path d="M2959 2333 c-27 -68 -41 -136 -48 -238 -5 -60 -27 -227 -49 -370 -23
-143 -46 -312 -52 -375 -6 -63 -13 -124 -16 -135 -2 -11 -9 -58 -14 -105 -5
-47 -13 -112 -19 -144 -12 -72 -2 -96 38 -96 32 0 86 37 150 103 56 58 66 100
63 278 -2 97 3 169 17 250 11 63 23 182 27 264 6 132 5 152 -10 164 -13 11
-16 37 -16 168 0 111 -4 170 -16 209 -17 60 -38 70 -55 27z"/>
</g>
</svg>
