<?xml version="1.0" standalone="no"?>
<!DOCTYPE svg PUBLIC "-//W3C//DTD SVG 20010904//EN"
 "http://www.w3.org/TR/2001/REC-SVG-20010904/DTD/svg10.dtd">
<svg version="1.0" xmlns="http://www.w3.org/2000/svg"
 width="803.000000pt" height="803.000000pt" viewBox="0 0 803.000000 803.000000"
 preserveAspectRatio="xMidYMid meet">

<g transform="translate(0.000000,803.000000) scale(0.100000,-0.100000)"
fill="#000000" stroke="none">
<path d="M3463 5861 c-10 -10 -34 -26 -53 -36 -19 -10 -57 -37 -85 -60 -27
-23 -76 -55 -107 -69 -64 -30 -164 -135 -214 -223 -14 -26 -46 -77 -70 -113
-58 -88 -68 -117 -109 -315 -28 -134 -37 -204 -42 -326 -6 -149 -5 -161 19
-240 14 -46 35 -122 46 -169 24 -101 96 -274 160 -385 31 -51 81 -114 145
-179 53 -55 97 -102 97 -106 0 -4 42 -44 93 -90 75 -67 115 -94 217 -144 117
-57 130 -61 195 -61 55 0 78 5 106 23 20 12 45 22 56 22 22 0 43 18 43 37 0
11 -6 10 -30 -2 -56 -29 -149 -19 -368 37 -81 21 -231 144 -299 246 -20 30
-42 56 -50 59 -8 3 -23 23 -33 44 l-20 38 25 25 c14 14 25 34 25 45 0 32 -158
349 -180 361 -12 6 -29 9 -39 5 -29 -9 -55 32 -96 150 -50 146 -65 262 -54
430 13 209 32 279 94 354 31 36 50 39 65 12 5 -11 20 -23 32 -27 51 -16 67
-36 62 -79 -4 -35 -2 -33 16 20 24 72 116 189 245 313 47 46 90 93 94 105 11
30 -3 95 -28 121 -27 29 -19 54 22 71 21 9 38 10 52 3 25 -11 55 -62 55 -93 0
-12 7 -28 15 -35 27 -23 30 37 7 129 -30 116 -65 149 -109 102z"/>
<path d="M3081 5064 c0 -11 3 -14 6 -6 3 7 2 16 -1 19 -3 4 -6 -2 -5 -13z"/>
<path d="M3065 5010 c-4 -17 -5 -34 -2 -36 2 -3 7 10 11 27 8 42 0 50 -9 9z"/>
<path d="M3052 4940 c0 -14 2 -19 5 -12 2 6 2 18 0 25 -3 6 -5 1 -5 -13z"/>
<path d="M3041 4884 c0 -11 3 -14 6 -6 3 7 2 16 -1 19 -3 4 -6 -2 -5 -13z"/>
<path d="M3031 4824 c0 -11 3 -14 6 -6 3 7 2 16 -1 19 -3 4 -6 -2 -5 -13z"/>
<path d="M3011 4703 c-26 -122 0 -330 44 -347 24 -9 55 6 55 27 0 11 -10 52
-21 91 -12 39 -32 120 -43 181 l-22 110 -13 -62z"/>
<path d="M3345 3867 c-20 -32 -7 -62 43 -99 20 -14 66 -51 101 -82 62 -54 128
-87 201 -100 27 -5 17 3 -42 33 -71 35 -85 48 -160 142 -46 56 -93 109 -105
116 -20 13 -23 12 -38 -10z"/>
<path d="M1528 3318 c-21 -16 -26 -57 -10 -85 18 -33 14 -102 -9 -147 -12 -24
-69 -85 -135 -146 -285 -261 -316 -281 -426 -286 -37 -1 -76 -5 -87 -9 -15 -4
-20 -1 -23 17 -7 52 -93 54 -117 2 -16 -36 -14 -62 8 -92 10 -15 26 -43 34
-62 31 -71 220 -250 366 -346 43 -28 48 -29 177 -29 l133 0 73 51 c56 39 73
56 73 75 0 23 -3 24 -88 31 -49 3 -96 9 -105 13 -44 17 -181 24 -260 14 -76
-10 -85 -9 -104 7 -35 33 -48 70 -48 144 0 83 -2 80 132 177 48 35 124 104
170 154 143 158 160 175 153 154 -18 -48 -17 -73 2 -77 24 -6 82 23 115 59 49
51 92 159 96 240 5 94 -2 119 -38 138 -35 18 -61 19 -82 3z"/>
<path d="M5140 3210 c-42 -12 -104 -47 -150 -85 -52 -44 -141 -90 -191 -99
-25 -4 -51 -22 -89 -62 -43 -44 -78 -67 -174 -114 -149 -72 -242 -94 -388 -93
-97 0 -111 3 -153 27 -31 19 -48 36 -51 54 -8 36 -92 100 -163 125 -55 19
-215 33 -257 23 -11 -3 -52 -29 -90 -57 -38 -28 -126 -79 -197 -114 -70 -34
-134 -68 -142 -75 -9 -7 -15 -29 -15 -50 0 -29 6 -44 28 -62 15 -12 49 -54 75
-93 26 -38 67 -93 90 -121 23 -28 66 -84 96 -125 l53 -74 -5 -71 c-3 -39 -26
-160 -51 -270 -59 -256 -123 -528 -146 -626 -17 -70 -18 -95 -8 -275 5 -109 8
-251 5 -315 -3 -80 -1 -122 6 -132 7 -9 35 -20 62 -26 69 -14 403 -25 390 -13
-5 5 -54 43 -108 83 -104 77 -212 198 -228 254 -12 43 -11 471 2 597 5 57 17
130 25 161 8 32 21 111 30 175 15 115 72 299 97 315 25 16 -37 223 -80 270
-12 13 -31 43 -44 68 -12 25 -35 64 -51 87 -15 23 -28 54 -28 68 0 35 68 105
101 105 38 0 116 56 138 97 10 21 31 49 45 62 21 20 32 23 71 19 25 -3 70 -18
99 -34 220 -116 282 -145 336 -153 32 -5 70 -17 83 -26 21 -13 37 -14 123 -5
54 6 115 19 134 29 68 34 105 56 108 64 6 12 93 54 139 66 31 9 48 8 67 0 32
-15 39 -35 26 -79 -6 -19 -10 -36 -10 -38 0 -2 32 26 72 63 40 36 104 85 143
108 38 22 95 64 125 92 30 28 71 62 90 77 19 14 58 49 86 77 41 41 50 56 46
76 -2 14 -12 29 -21 34 -22 12 -121 19 -151 11z"/>
<path d="M1690 3020 c-11 -22 -27 -65 -35 -97 -14 -55 -14 -59 5 -83 11 -14
31 -41 44 -61 36 -53 122 -83 189 -64 22 6 27 13 27 39 0 32 -32 95 -56 109
-8 4 -14 18 -14 30 -1 32 -59 111 -102 141 l-38 25 -20 -39z"/>
<path d="M4795 2486 c-26 -27 -33 -46 -38 -88 -2 -29 -2 -57 0 -62 3 -4 23 -6
45 -3 l39 5 -5 -66 -6 -67 15 55 c8 30 27 94 41 143 14 48 24 94 20 102 -3 10
-19 15 -42 15 -29 0 -44 -7 -69 -34z"/>
<path d="M5630 2477 c-156 -60 -161 -64 -193 -142 -50 -122 -116 -371 -117
-439 0 -23 9 -11 43 55 28 56 51 88 68 96 29 14 69 103 69 154 0 43 38 74 170
137 l115 56 120 4 c128 4 111 8 303 -62 80 -30 186 -43 197 -25 13 19 -29 50
-140 105 -150 74 -199 85 -390 90 l-160 5 -85 -34z"/>
<path d="M2957 2328 c-27 -66 -39 -135 -27 -157 6 -12 26 -88 45 -169 64 -280
69 -297 76 -271 4 13 7 61 8 105 1 61 -3 85 -14 94 -12 10 -15 42 -15 167 0
218 -34 325 -73 231z"/>
<path d="M6443 2192 c-39 -34 -42 -41 -44 -92 -1 -30 1 -89 5 -130 3 -41 8
-148 11 -236 l5 -161 -32 -7 c-21 -4 -38 -1 -52 9 -117 87 -232 141 -356 169
-36 8 -90 22 -120 31 -39 11 -81 15 -145 12 -82 -3 -102 -8 -219 -57 -123 -51
-129 -55 -147 -94 -24 -54 -25 -118 -1 -139 10 -10 35 -17 55 -17 32 0 38 4
51 33 18 45 110 123 171 146 28 10 89 24 137 30 81 11 88 10 122 -9 24 -15 60
-23 113 -27 69 -5 89 -11 170 -55 108 -57 143 -93 143 -147 0 -48 19 -74 51
-69 17 2 38 24 72 73 26 39 54 79 61 90 24 34 54 174 70 324 19 167 20 229 6
266 -12 33 -62 95 -75 95 -5 0 -29 -17 -52 -38z"/>
<path d="M3027 1680 c-24 -61 -68 -205 -77 -255 -6 -33 -13 -108 -17 -168 l-6
-107 -82 -81 c-71 -69 -83 -86 -88 -122 -15 -113 68 -102 192 26 56 58 63 93
66 307 1 93 8 203 17 252 14 80 10 186 -5 148z"/>
<path d="M4653 946 c-32 -24 -69 -49 -82 -56 l-25 -13 23 -18 c33 -27 110 -26
145 2 22 18 26 28 26 75 0 67 -9 68 -87 10z"/>
</g>
</svg>
